<?xml version="1.0" encoding="UTF-8" standalone="no"?>
<!-- Created with Inkscape (http://www.inkscape.org/) -->

<svg
   xmlns:dc="http://purl.org/dc/elements/1.1/"
   xmlns:cc="http://creativecommons.org/ns#"
   xmlns:rdf="http://www.w3.org/1999/02/22-rdf-syntax-ns#"
   xmlns:svg="http://www.w3.org/2000/svg"
   xmlns="http://www.w3.org/2000/svg"
   xmlns:sodipodi="http://sodipodi.sourceforge.net/DTD/sodipodi-0.dtd"
   xmlns:inkscape="http://www.inkscape.org/namespaces/inkscape"
   version="1.1"
   id="svg2"
   xml:space="preserve"
   width="555.56506"
   height="256.83066"
   viewBox="0 0 555.56506 256.83066"
   sodipodi:docname="fibeamer-ist-dei-english.svg"
   inkscape:version="0.92.4 5da689c313, 2019-01-14"><metadata
     id="metadata8"><rdf:RDF><cc:Work
         rdf:about=""><dc:format>image/svg+xml</dc:format><dc:type
           rdf:resource="http://purl.org/dc/dcmitype/StillImage" /><dc:title></dc:title></cc:Work></rdf:RDF></metadata><defs
     id="defs6"><clipPath
       clipPathUnits="userSpaceOnUse"
       id="clipPath22"><path
         d="M 0,595.28 H 841.89 V 0 H 0 Z"
         id="path20"
         inkscape:connector-curvature="0" /></clipPath></defs><sodipodi:namedview
     pagecolor="#ffffff"
     bordercolor="#666666"
     borderopacity="1"
     objecttolerance="10"
     gridtolerance="10"
     guidetolerance="10"
     inkscape:pageopacity="0"
     inkscape:pageshadow="2"
     inkscape:window-width="1920"
     inkscape:window-height="1025"
     id="namedview4"
     showgrid="false"
     inkscape:zoom="1.6820038"
     inkscape:cx="434.82026"
     inkscape:cy="205.00155"
     inkscape:window-x="0"
     inkscape:window-y="25"
     inkscape:window-maximized="1"
     inkscape:current-layer="g10"
     fit-margin-top="50"
     fit-margin-left="75"
     fit-margin-right="75"
     fit-margin-bottom="50"
     units="px"
     inkscape:pagecheckerboard="true"><inkscape:grid
       type="xygrid"
       id="grid326"
       originx="-283.30623"
       originy="-70.012234" /></sodipodi:namedview><g
     id="g10"
     inkscape:groupmode="layer"
     inkscape:label="IST_A_1COR"
     transform="matrix(1.3333333,0,0,-1.3333333,-283.30626,326.84293)"><g
       id="g74"
       transform="translate(397.6587,190.876)"><path
         d="M 0,0 H -9.701 V 5.701 H 16.272 V 0 H 6.571 V -28.512 H 0 Z"
         style="fill:#ffffff;fill-opacity:1;fill-rule:nonzero;stroke:none"
         id="path76"
         inkscape:connector-curvature="0" /></g><g
       id="g78"
       transform="translate(425.6133,202.2803)"><path
         d="m 0,0 c 2.45,1.49 4.851,2.979 6.938,4.571 l 2.451,-3.8 C 7.042,-0.924 5.112,-2.055 2.296,-3.494 Z m -7.249,-5.703 h 21.28 v -5.701 H -0.678 v -8.272 h 13.561 v -5.703 H -0.678 v -8.834 h 14.709 v -5.703 h -21.28 z"
         style="fill:#ffffff;fill-opacity:1;fill-rule:nonzero;stroke:none"
         id="path80"
         inkscape:connector-curvature="0" /></g><g
       id="g82"
       transform="translate(444.8594,187.1777)"><path
         d="m 0,0 c 0,6.268 3.703,9.915 12.361,9.915 3.235,0 6.572,-0.412 9.441,-1.131 L 21.072,3.185 C 18.255,3.698 14.968,4.058 12.569,4.058 8.032,4.058 6.571,2.517 6.571,-1.13 v -13.152 c 0,-3.647 1.461,-5.19 5.998,-5.19 2.399,0 5.686,0.362 8.503,0.875 l 0.73,-5.599 c -2.869,-0.719 -6.206,-1.131 -9.441,-1.131 C 3.703,-25.327 0,-21.679 0,-15.411 Z"
         style="fill:#ffffff;fill-opacity:1;fill-rule:nonzero;stroke:none"
         id="path84"
         inkscape:connector-curvature="0" /></g><g
       id="g86"
       transform="translate(478.5527,188.3076)"><path
         d="M 0,0 V -25.943 H -6.416 V 8.27 H 2.347 L 15.542,-17.723 V 8.27 h 6.416 v -34.213 h -8.763 z"
         style="fill:#ffffff;fill-opacity:1;fill-rule:nonzero;stroke:none"
         id="path88"
         inkscape:connector-curvature="0" /></g><path
       d="m 514.383,162.364 h -6.572 v 34.213 h 6.572 z"
       style="fill:#ffffff;fill-opacity:1;fill-rule:nonzero;stroke:none"
       id="path90"
       inkscape:connector-curvature="0" /><g
       id="g92"
       transform="translate(520.9033,187.1777)"><path
         d="m 0,0 c 0,6.268 3.702,9.915 12.361,9.915 3.234,0 6.572,-0.412 9.44,-1.131 L 21.07,3.185 C 18.254,3.698 14.969,4.058 12.568,4.058 8.032,4.058 6.57,2.517 6.57,-1.13 v -13.152 c 0,-3.647 1.462,-5.19 5.998,-5.19 2.401,0 5.686,0.362 8.502,0.875 l 0.731,-5.599 c -2.868,-0.719 -6.206,-1.131 -9.44,-1.131 C 3.702,-25.327 0,-21.679 0,-15.411 Z"
         style="fill:#ffffff;fill-opacity:1;fill-rule:nonzero;stroke:none"
         id="path94"
         inkscape:connector-curvature="0" /></g><g
       id="g96"
       transform="translate(553.1875,172.7412)"><path
         d="m 0,0 c 0,-3.236 1.669,-5.188 6.571,-5.188 4.904,0 6.573,1.952 6.573,5.188 v 13.46 c 0,3.236 -1.669,5.188 -6.573,5.188 C 1.669,18.648 0,16.696 0,13.46 Z m 19.716,-0.359 c 0,-5.702 -3.338,-10.532 -13.145,-10.532 -9.804,0 -13.143,4.83 -13.143,10.532 v 14.178 c 0,5.702 3.339,10.533 13.143,10.533 9.807,0 13.145,-4.831 13.145,-10.533 z"
         style="fill:#ffffff;fill-opacity:1;fill-rule:nonzero;stroke:none"
         id="path98"
         inkscape:connector-curvature="0" /></g><g
       id="g100"
       transform="translate(400.5884,121.8955)"><path
         d="M 0,0 H 15.647 V -2.723 H -3.077 V 31.491 H 0 Z"
         style="fill:#ffffff;fill-opacity:1;fill-rule:nonzero;stroke:none"
         id="path102"
         inkscape:connector-curvature="0" /></g><path
       d="m 426.301,119.173 h -3.076 v 34.214 h 3.076 z"
       style="fill:#ffffff;fill-opacity:1;fill-rule:nonzero;stroke:none"
       id="path104"
       inkscape:connector-curvature="0" /><g
       id="g106"
       transform="translate(444.6602,118.6592)"><path
         d="m 0,0 c -3.024,0 -6.832,0.514 -9.806,1.643 l 0.574,2.466 c 3.129,-0.923 6.311,-1.384 9.336,-1.384 5.946,0 7.564,1.744 7.564,6.111 0,5.291 -0.053,5.855 -7.772,7.603 -8.397,1.901 -9.336,3.391 -9.336,10.274 0,5.6 2.086,8.527 10.796,8.527 3.025,0 6.624,-0.512 8.972,-1.18 L 9.962,31.49 c -2.556,0.566 -5.79,1.028 -8.502,1.028 -6.885,0 -7.823,-1.644 -7.823,-5.907 0,-5.548 0.156,-5.806 7.458,-7.603 9.129,-2.26 9.649,-3.545 9.649,-10.018 C 10.744,3.393 8.814,0 0,0"
         style="fill:#ffffff;fill-opacity:1;fill-rule:nonzero;stroke:none"
         id="path108"
         inkscape:connector-curvature="0" /></g><g
       id="g110"
       transform="translate(482.2129,130.5264)"><path
         d="m 0,0 c 0,2.877 -1.721,4.828 -5.737,4.828 h -9.701 V -8.682 H -4.851 C -1.564,-8.682 0,-7.09 0,-4.367 Z m -1.096,16.541 c 0,2.364 -1.356,3.647 -4.329,3.647 H -15.438 V 7.5 h 8.97 c 3.808,0 5.372,1.951 5.372,4.676 z M -18.517,-11.354 V 22.86 h 13.04 c 4.695,0 7.459,-2.21 7.459,-6.729 V 12.02 C 1.982,9.297 0.834,7.5 -1.981,6.473 0.731,6.113 3.076,3.902 3.076,0.104 v -4.471 c 0,-4.727 -3.493,-6.987 -7.978,-6.987 z"
         style="fill:#ffffff;fill-opacity:1;fill-rule:nonzero;stroke:none"
         id="path112"
         inkscape:connector-curvature="0" /></g><g
       id="g114"
       transform="translate(512.9844,128.9346)"><path
         d="m 0,0 v 14.691 c 0,4.881 -2.398,7.551 -9.075,7.551 -6.677,0 -9.076,-2.67 -9.076,-7.551 V 0 c 0,-4.881 2.399,-7.551 9.076,-7.551 C -2.398,-7.551 0,-4.881 0,0 m -9.075,-10.275 c -8.919,0 -12.154,4.316 -12.154,10.171 v 14.897 c 0,5.857 3.235,10.172 12.154,10.172 8.919,0 12.152,-4.315 12.152,-10.172 V -0.104 c 0,-5.855 -3.233,-10.171 -12.152,-10.171"
         style="fill:#ffffff;fill-opacity:1;fill-rule:nonzero;stroke:none"
         id="path116"
         inkscape:connector-curvature="0" /></g><g
       id="g118"
       transform="translate(528.1631,130.7822)"><path
         d="M 0,0 H 14.292 L 7.145,20.857 Z M 15.229,-2.619 H -0.938 l -3.235,-8.99 H -7.199 L 4.902,22.604 H 9.44 l 12.1,-34.213 h -3.024 z"
         style="fill:#ffffff;fill-opacity:1;fill-rule:nonzero;stroke:none"
         id="path120"
         inkscape:connector-curvature="0" /></g><g
       id="g122"
       transform="translate(343.2437,170.4932)"><path
         d="m 0,0 h -4.051 v -30.443 h -8.762 L -12.815,0 h -4.039 V 6.104 H 0 Z m -21.586,15.796 -0.004,-55.95 c 0,-7.248 -5.875,-11.006 -13.123,-11.006 -7.246,0 -13.173,3.168 -13.173,9.328 h 0.008 c 0,2.414 1.961,4.373 4.375,4.373 2.416,0 4.377,-1.959 4.377,-4.373 h 10e-4 c 0,-4.475 0.357,-7.508 4.412,-7.508 4.362,0 4.362,3.045 4.362,9.186 l 0.002,55.95 c 0,7.249 5.875,11.006 13.123,11.006 7.248,0 13.175,-3.165 13.175,-9.325 h -0.01 c 0,-2.418 -1.957,-4.375 -4.376,-4.375 -2.414,0 -4.372,1.957 -4.372,4.375 h -0.004 c 0,4.468 -0.356,7.503 -4.413,7.503 -4.361,0 -4.36,-3.044 -4.36,-9.184 M -47.872,6.104 h 8.738 l 0.011,-36.528 h -8.759 z m -26.642,31.035 v -49.364 c 0,-44.451 48.535,-68.259 48.535,-68.259 0,0 48.717,23.808 48.717,68.259 v 49.364 z"
         style="fill:#ffffff;fill-opacity:1;fill-rule:evenodd;stroke:none"
         id="path124"
         inkscape:connector-curvature="0" /></g></g></svg>